<?xml version="1.0" encoding="UTF-8"?>
<svg width="8px" height="15px" viewBox="0 0 8 15" version="1.1" xmlns="http://www.w3.org/2000/svg" xmlns:xlink="http://www.w3.org/1999/xlink">
    <!-- Generator: Sketch 41.2 (35397) - http://www.bohemiancoding.com/sketch -->
    <title>arrow487 copy</title>
    <desc>Created with Sketch.</desc>
    <defs></defs>
    <g id="Page-1" stroke="none" stroke-width="1" fill="none" fill-rule="evenodd">
        <g id="LP_2" transform="translate(-19.000000, -259.000000)" fill="#FFFFFF">
            <g id="D01_SECTION-1-|-Header" transform="translate(-77.000000, -141.000000)">
                <g id="Image-Sliders" transform="translate(77.000000, 381.000000)">
                    <g id="Image-Left">
                        <g id="arrow487-copy" transform="translate(23.000000, 26.500000) scale(-1, 1) translate(-23.000000, -26.500000) translate(19.000000, 19.000000)">
                            <path d="M7.71217089,8.24257713 L1.67769864,14.6921386 C1.29383331,15.1026205 0.671461489,15.1026205 0.287782521,14.6921386 C-0.0959275069,14.2820219 -0.0959275069,13.6168521 0.287782521,13.2067686 L5.62735883,7.49989211 L0.287937819,1.79321485 C-0.0957722091,1.38293217 -0.0957722091,0.717828712 0.287937819,0.307712013 C0.671647847,-0.102570671 1.29398861,-0.102570671 1.67785394,0.307712013 L7.71232619,6.75737307 C7.9041812,6.96253101 8,7.23112857 8,7.49985891 C8,7.76872205 7.90399484,8.03751878 7.71217089,8.24257713 L7.71217089,8.24257713 Z" id="Shape"></path>
                        </g>
                    </g>
                </g>
            </g>
        </g>
    </g>
</svg>